<svg xmlns="http://www.w3.org/2000/svg" viewBox="0 0 500 500">
  <path fill="#030303" d="M 248.5,-0.5 C 253.167,-0.5 257.833,-0.5 262.5,-0.5C 274.575,5.31138 279.575,14.9781 277.5,28.5C 311.747,31.5271 343.58,41.8604 373,59.5C 376.52,51.9501 379.853,44.2835 383,36.5C 389.702,29.3299 397.035,28.6633 405,34.5C 408.724,42.3378 412.057,50.3378 415,58.5C 421.936,62.3844 429.103,65.8844 436.5,69C 442.969,74.8649 444.136,81.6983 440,89.5C 434.74,93.0361 429.24,96.2027 423.5,99C 463.201,141.886 484.534,192.72 487.5,251.5C 494.175,251.334 500.842,251.5 507.5,252C 509.35,252.69 510.684,253.856 511.5,255.5C 511.5,259.833 511.5,264.167 511.5,268.5C 507.191,283.645 497.525,293.811 482.5,299C 456.549,300.297 430.549,300.964 404.5,301C 428.31,321.095 436.976,346.428 430.5,377C 428.975,378.009 427.308,378.509 425.5,378.5C 421.91,378.456 419.41,376.789 418,373.5C 420.797,347.856 412.297,327.022 392.5,311C 379.705,302.801 365.705,299.301 350.5,300.5C 300.832,300.333 251.166,300.5 201.5,301C 195.092,304.323 192.925,309.489 195,316.5C 196.563,319.728 199.063,321.895 202.5,323C 240.833,323.333 279.167,323.667 317.5,324C 323.232,329.608 322.565,334.274 315.5,338C 277.167,338.667 238.833,338.667 200.5,338C 182.494,331.654 176.16,319.32 181.5,301C 151.833,300.333 122.167,300.333 92.5,301C 87.2262,303.055 84.5595,306.889 84.5,312.5C 84.1893,320.051 87.5227,325.217 94.5,328C 158.895,348.465 223.228,369.132 287.5,390C 302.618,393.512 317.951,395.179 333.5,395C 347.732,398.724 354.398,407.89 353.5,422.5C 363.833,422.5 374.167,422.5 384.5,422.5C 395.5,422.5 406.5,422.5 417.5,422.5C 417.334,414.826 417.5,407.159 418,399.5C 418.374,398.584 418.874,397.75 419.5,397C 421.611,396.155 423.611,395.322 425.5,394.5C 428.195,394.933 430.362,396.266 432,398.5C 432.168,407.186 432.668,415.852 433.5,424.5C 437.488,426.783 440.321,430.116 442,434.5C 442.667,456.167 442.667,477.833 442,499.5C 439.981,505.35 436.148,509.35 430.5,511.5C 400.833,511.5 371.167,511.5 341.5,511.5C 335.852,509.35 332.019,505.35 330,499.5C 329.333,477.833 329.333,456.167 330,434.5C 331.728,430.357 334.394,427.024 338,424.5C 339.369,419.563 338.203,415.396 334.5,412C 316.311,410.912 298.311,408.246 280.5,404C 215.5,383 150.5,362 85.5,341C 69.3528,331.765 64.6861,318.432 71.5,301C 58.5,300.667 45.5,300.333 32.5,300C 15.4191,295.75 4.41913,285.25 -0.5,268.5C -0.5,264.167 -0.5,259.833 -0.5,255.5C 0.316435,253.856 1.64977,252.69 3.5,252C 10.1583,251.5 16.825,251.334 23.5,251.5C 27.415,179.831 57.0817,121.664 112.5,77C 116.072,76.1529 119.406,76.6529 122.5,78.5C 123.89,81.9303 123.724,85.2637 122,88.5C 70.651,130.529 43.151,184.862 39.5,251.5C 169.167,251.5 298.833,251.5 428.5,251.5C 442.833,251.5 457.167,251.5 471.5,251.5C 469.196,196.916 449.363,149.916 412,110.5C 409.674,115.465 407.341,120.465 405,125.5C 399.874,130.786 394.041,131.786 387.5,128.5C 384.17,125.832 381.837,122.498 380.5,118.5C 378.635,112.74 376.468,107.073 374,101.5C 368.215,98.6905 362.382,96.0238 356.5,93.5C 352.233,92.2316 349.233,89.5649 347.5,85.5C 346.164,77.3366 349.164,71.5033 356.5,68C 328.262,53.2744 298.262,45.1077 266.5,43.5C 224.504,40.9981 185.171,50.1648 148.5,71C 144.868,71.5193 141.868,70.3526 139.5,67.5C 138.026,64.1693 138.359,61.0027 140.5,58C 169.271,41.2436 200.271,31.4103 233.5,28.5C 231.425,14.9781 236.425,5.31138 248.5,-0.5 Z" />
  <path fill="#508cd4" d="M 261.5,19.5 C 261.5,22.1667 261.5,24.8333 261.5,27.5C 257.5,27.5 253.5,27.5 249.5,27.5C 249.5,24.8333 249.5,22.1667 249.5,19.5C 250.843,14.9221 253.843,13.4221 258.5,15C 260.141,16.129 261.141,17.629 261.5,19.5 Z" />
  <path fill="#264366" d="M 249.5,19.5 C 249.5,22.1667 249.5,24.8333 249.5,27.5C 253.5,27.5 257.5,27.5 261.5,27.5C 261.5,24.8333 261.5,22.1667 261.5,19.5C 262.477,22.2869 262.81,25.2869 262.5,28.5C 257.833,28.5 253.167,28.5 248.5,28.5C 248.19,25.2869 248.523,22.2869 249.5,19.5 Z" />
  <path fill="#d0f1fd" d="M 266.5,43.5 C 296.185,52.5077 323.185,66.5077 347.5,85.5C 349.233,89.5649 352.233,92.2316 356.5,93.5C 364.528,101.86 372.528,110.193 380.5,118.5C 381.837,122.498 384.17,125.832 387.5,128.5C 407.97,157.718 421.137,190.051 427,225.5C 428.145,234.13 428.645,242.797 428.5,251.5C 298.833,251.5 169.167,251.5 39.5,251.5C 43.151,184.862 70.651,130.529 122,88.5C 123.724,85.2637 123.89,81.9303 122.5,78.5C 127.897,74.4394 133.564,70.7727 139.5,67.5C 141.868,70.3526 144.868,71.5193 148.5,71C 185.171,50.1648 224.504,40.9981 266.5,43.5 Z" />
  <path fill="#a4e7f8" d="M 266.5,43.5 C 298.262,45.1077 328.262,53.2744 356.5,68C 349.164,71.5033 346.164,77.3366 347.5,85.5C 323.185,66.5077 296.185,52.5077 266.5,43.5 Z" />
  <path fill="#dff2f7" d="M 393.5,49.5 C 394.497,49.4701 395.164,49.9701 395.5,51C 398,57.1667 400.5,63.3333 403,69.5C 409.461,73.9809 416.294,77.8142 423.5,81C 415.971,83.6791 409.137,87.5125 403,92.5C 400.162,98.842 397.328,105.175 394.5,111.5C 391.729,105.623 389.229,99.6233 387,93.5C 385.5,92 384,90.5 382.5,89C 376.748,86.5265 371.081,83.8598 365.5,81C 372.706,77.8142 379.539,73.9809 386,69.5C 389.198,63.0691 391.698,56.4025 393.5,49.5 Z" />
  <path fill="#040505" d="M 208.5,73.5 C 214.391,72.4296 217.724,74.7629 218.5,80.5C 218.444,83.1113 217.444,85.278 215.5,87C 174.357,97.7268 140.691,119.727 114.5,153C 105.956,156.322 102.123,153.489 103,144.5C 130.015,108.741 165.181,85.0744 208.5,73.5 Z" />
  <path fill="#a2e2f3" d="M 356.5,93.5 C 362.382,96.0238 368.215,98.6905 374,101.5C 376.468,107.073 378.635,112.74 380.5,118.5C 372.528,110.193 364.528,101.86 356.5,93.5 Z" />
  <path fill="#a6e9fb" d="M 428.5,251.5 C 428.645,242.797 428.145,234.13 427,225.5C 421.137,190.051 407.97,157.718 387.5,128.5C 394.041,131.786 399.874,130.786 405,125.5C 407.341,120.465 409.674,115.465 412,110.5C 449.363,149.916 469.196,196.916 471.5,251.5C 457.167,251.5 442.833,251.5 428.5,251.5 Z" />
  <path fill="#305581" d="M 494.5,268.5 C 335.167,267.167 175.833,267.167 16.5,268.5C 15.9569,268.44 15.6236,268.107 15.5,267.5C 175.5,266.167 335.5,266.167 495.5,267.5C 495.376,268.107 495.043,268.44 494.5,268.5 Z" />
  <path fill="#508cd4" d="M 494.5,268.5 C 491.139,277.357 484.806,282.857 475.5,285C 328.833,285.667 182.167,285.667 35.5,285C 26.1943,282.857 19.861,277.357 16.5,268.5C 175.833,267.167 335.167,267.167 494.5,268.5 Z" />
  <path fill="#e6ab8b" d="M 350.5,300.5 C 368.506,311.138 379.672,326.805 384,347.5C 384.5,372.498 384.667,397.498 384.5,422.5C 374.167,422.5 363.833,422.5 353.5,422.5C 354.398,407.89 347.732,398.724 333.5,395C 317.951,395.179 302.618,393.512 287.5,390C 223.228,369.132 158.895,348.465 94.5,328C 87.5227,325.217 84.1893,320.051 84.5,312.5C 84.5595,306.889 87.2262,303.055 92.5,301C 122.167,300.333 151.833,300.333 181.5,301C 176.16,319.32 182.494,331.654 200.5,338C 238.833,338.667 277.167,338.667 315.5,338C 322.565,334.274 323.232,329.608 317.5,324C 279.167,323.667 240.833,323.333 202.5,323C 199.063,321.895 196.563,319.728 195,316.5C 192.925,309.489 195.092,304.323 201.5,301C 251.166,300.5 300.832,300.333 350.5,300.5 Z" />
  <path fill="#df9873" d="M 350.5,300.5 C 365.705,299.301 379.705,302.801 392.5,311C 412.297,327.022 420.797,347.856 418,373.5C 419.41,376.789 421.91,378.456 425.5,378.5C 425.5,383.833 425.5,389.167 425.5,394.5C 423.611,395.322 421.611,396.155 419.5,397C 418.874,397.75 418.374,398.584 418,399.5C 417.5,407.159 417.334,414.826 417.5,422.5C 406.5,422.5 395.5,422.5 384.5,422.5C 384.667,397.498 384.5,372.498 384,347.5C 379.672,326.805 368.506,311.138 350.5,300.5 Z" />
  <path fill="#f8f7f7" d="M 345.5,438.5 C 361.833,438.5 378.167,438.5 394.5,438.5C 394.5,457.833 394.5,477.167 394.5,496.5C 377.923,496.825 361.423,496.492 345,495.5C 344.171,476.329 344.338,457.329 345.5,438.5 Z" />
  <path fill="#e0e9f3" d="M 345.5,438.5 C 372.373,437.172 399.373,437.172 426.5,438.5C 427.666,457.491 427.833,476.491 427,495.5C 416.248,496.487 405.415,496.82 394.5,496.5C 394.5,477.167 394.5,457.833 394.5,438.5C 378.167,438.5 361.833,438.5 345.5,438.5 Z" />
  <path fill="#080808" d="M 359.5,448.5 C 367.201,448.362 370.367,452.029 369,459.5C 364.571,464.808 360.237,464.808 356,459.5C 354.662,454.96 355.829,451.293 359.5,448.5 Z" />
</svg>